<?xml version="1.0" encoding="UTF-8" standalone="no"?>
<!-- Generator: Adobe Illustrator 24.3.0, SVG Export Plug-In . SVG Version: 6.00 Build 0)  -->

<svg
   version="1.1"
   id="Layer_1"
   x="0px"
   y="0px"
   viewBox="0 0 951.78882 151.2"
   xml:space="preserve"
   sodipodi:docname="logo.svg"
   width="951.78882"
   height="151.2"
   inkscape:version="1.1 (c68e22c387, 2021-05-23)"
   xmlns:inkscape="http://www.inkscape.org/namespaces/inkscape"
   xmlns:sodipodi="http://sodipodi.sourceforge.net/DTD/sodipodi-0.dtd"
   xmlns="http://www.w3.org/2000/svg"
   xmlns:svg="http://www.w3.org/2000/svg"><defs
   id="defs29" /><sodipodi:namedview
   id="namedview27"
   pagecolor="#ffffff"
   bordercolor="#666666"
   borderopacity="1.0"
   inkscape:pageshadow="2"
   inkscape:pageopacity="0.0"
   inkscape:pagecheckerboard="0"
   showgrid="false"
   inkscape:zoom="0.33833333"
   inkscape:cx="-189.16256"
   inkscape:cy="187.68473"
   inkscape:window-width="1920"
   inkscape:window-height="1001"
   inkscape:window-x="-9"
   inkscape:window-y="-9"
   inkscape:window-maximized="1"
   inkscape:current-layer="Layer_1" />
<g
   id="g20"
   transform="translate(-124.1,-514.4)">
	<path
   d="m 124.1,590.9 c 0,-42.8 32,-73.6 77,-73.6 10.2,0 19.8,1.9 28.5,5.2 v 33.7 c -6.9,-5 -16.9,-8.1 -27.7,-8.1 -25.4,0 -43.7,18.1 -43.7,42.6 0,24.5 18.3,42.6 43.7,42.6 10.8,0 20.8,-3.1 27.7,-8.1 v 34.1 c -8.7,3.5 -18.3,5.2 -28.5,5.2 -45,0.1 -77,-30.5 -77,-73.6 z"
   id="path2" />
	<path
   d="m 236.7,613.2 c 0,-29.5 23.5,-51.8 54.3,-51.8 30.4,0 53.7,22.3 53.7,51.8 0,30 -23.3,52.4 -53.7,52.4 -30.8,0 -54.3,-22.4 -54.3,-52.4 z m 54.1,23.9 c 13.3,0 22.9,-10 22.9,-23.9 0,-13.5 -9.6,-23.5 -22.9,-23.5 -13.3,0 -23.1,10 -23.1,23.5 0,13.9 9.8,23.9 23.1,23.9 z"
   id="path4" />
	<path
   d="m 352.7,613.2 c 0,-29.5 23.5,-51.8 54.3,-51.8 30.4,0 53.7,22.3 53.7,51.8 0,30 -23.3,52.4 -53.7,52.4 -30.8,0 -54.3,-22.4 -54.3,-52.4 z m 54,23.9 c 13.3,0 22.9,-10 22.9,-23.9 0,-13.5 -9.6,-23.5 -22.9,-23.5 -13.3,0 -23.1,10 -23.1,23.5 0,13.9 9.8,23.9 23.1,23.9 z"
   id="path6" />
	<path
   d="m 503.1,607.4 v 55.1 h -29.7 l -0.2,-97.8 h 27.7 v 10.4 c 6,-8.7 15.6,-12.7 27.3,-11.7 v 26.8 c -10.5,-1.8 -25.1,1.4 -25.1,17.2 z"
   id="path8" />
	<path
   d="m 532.5,613.2 c 0,-28.9 20.2,-51 49.1,-51 10.8,0 20.4,3.1 27.9,9.8 v -57.6 h 29.7 v 148.1 h -27.7 v -10.2 c -7.7,8.5 -18.3,12.3 -30.2,12.3 -28.8,0 -48.8,-22.5 -48.8,-51.4 z m 54.1,23.7 c 13.3,0 22.9,-10 22.9,-23.7 0,-13.3 -9.6,-23.3 -22.9,-23.3 -13.3,0 -23.1,10 -23.1,23.3 0,13.7 9.8,23.7 23.1,23.7 z"
   id="path10" />
	<path
   d="m 651.8,613.2 c 0,-29.5 23.5,-51.8 54.3,-51.8 30.4,0 53.7,22.3 53.7,51.8 0,30 -23.3,52.4 -53.7,52.4 -30.8,0 -54.3,-22.4 -54.3,-52.4 z m 54.1,23.9 c 13.3,0 22.9,-10 22.9,-23.9 0,-13.5 -9.6,-23.5 -22.9,-23.5 -13.3,0 -23.1,10 -23.1,23.5 0,13.9 9.7,23.9 23.1,23.9 z"
   id="path12" />
	<path
   d="m 800.2,564.7 v 6.7 c 5.8,-6 13.9,-9.4 23.5,-9.4 17.9,0 34.7,12.3 34.7,37.2 v 63.2 h -29.8 v -57.6 c 0,-10 -5,-16 -13.1,-16 -8.3,0 -13.3,6 -13.3,16 v 57.6 h -30 v -97.8 h 28 z"
   id="path14" />
	<path
   d="m 903.2,564.7 v 6.7 c 5.8,-6 13.9,-9.4 23.5,-9.4 17.9,0 34.7,12.3 34.7,37.2 v 63.2 h -29.7 v -57.6 c 0,-10 -5,-16 -13.1,-16 -8.3,0 -13.3,6 -13.3,16 v 57.6 h -30 v -97.8 h 27.9 z"
   id="path16" />
	<path
   d="m 973.8,613.2 c 0,-30 22.5,-51.8 51.8,-51.8 29.1,0 53.7,22 49.9,61.6 h -70.7 c 1.7,9.8 10.2,16.2 21.8,16.2 8.7,0 16,-4 20,-10.8 l 23.9,13.1 c -10.4,17.7 -27.9,24.1 -43.9,24.1 -29.9,0 -52.8,-22 -52.8,-52.4 z m 71.8,-11.4 c -1.7,-8.9 -9.6,-15 -20,-15 -10.4,0 -18.3,5.6 -20.4,15 z m -15.4,-85.3 h 37.7 l -29.5,35.6 h -23.5 z"
   id="path18" />
</g>


</svg>
