<svg xml:space="preserve" style="enable-background:new 0 0 553 64;" viewBox="0 0 553 64" y="0px" x="0px" xmlns:xlink="http://www.w3.org/1999/xlink" xmlns="http://www.w3.org/2000/svg" id="Capa_1" version="1.1">
<style type="text/css">
	.st0{fill-rule:evenodd;clip-rule:evenodd;fill:#3D3C3C;}
	.st1{fill:#3D3C3C;}
</style>
<g>
	<g>
		<path d="M35.1,29.2c-3.7-4.1-9.1-5.9-14-5.9c-11.7,0-21,8.1-21,20.3C0,55.8,9.4,64,21,64c3.4,0,10-1.4,14-5.4
			l-6.5-6.9C26.8,54,24,55.3,21,55.3c-7.1,0-11.4-5.6-11.4-11.6c0-6.1,4.3-11.6,11.4-11.6c2.6,0,5.1,1.5,7.3,3.9L35.1,29.2z" class="st0"></path>
		<path d="M38.8,43.7c0,12.2,9.4,20.3,21,20.3c11.7,0,21-8.1,21-20.3c0-12.2-9.4-20.3-21-20.3
			C48.2,23.4,38.8,31.5,38.8,43.7z M48.5,43.7c0-6.1,4.3-11.6,11.4-11.6c7.1,0,11.4,5.6,11.4,11.6c0,6-4.3,11.6-11.4,11.6
			C52.8,55.3,48.5,49.7,48.5,43.7z" class="st0"></path>
		<path d="M88.8,63h9.7V41.9c0-5.2,2.5-9.8,8.9-9.8c4.7,0,6.6,3.1,6.6,7.9V63h9.7v-21c0-5,2.3-10,8.3-10
			c5.7,0,7.2,4.2,7.2,9V63h9.7V40c0-9.3-3.6-16.6-13.9-16.6c-5.8,0-9.9,2.3-12.7,7.2c-2-4.8-6.1-7.2-12.1-7.2
			c-6.4,0-10.2,3.4-11.9,7H98v-6h-9.2V63z" class="st0"></path>
		<path d="M195.9,47.1v-2.7c0-13.5-7.3-21-18.1-21c-11.7,0-21,8.1-21,20.3c0,12.2,9.4,20.3,21,20.3
			c6.1,0,11.9-2.2,16.4-7.7l-6.9-5.2c-2.4,3-5.6,5.2-10.4,5.2c-5.4,0-9.8-3.5-10.4-9.2H195.9z M166.4,39.8c0.7-5.6,4.3-9.2,10-9.2
			c6,0,9.8,3.5,9.8,9.2H166.4z" class="st0"></path>
		<path d="M204.9,63h9.7V42.3c0-2.1,1.3-9.8,10.4-9.8c1.5,0,3.1,0.3,4.7,0.7v-9.4c-1.1-0.3-2.3-0.6-3.5-0.6
			c-5.1,0-9.4,2.7-11.5,7.1h-0.2v-6.1h-9.7V63z" class="st0"></path>
		<path d="M263.3,29.2c-3.1-4.3-8.6-5.9-13.8-5.9c-7.8,0-15.6,3.9-15.6,12.5c0,14.8,20.9,8.5,20.9,16.4
			c0,3.1-3.6,4.4-6.4,4.4c-4.1,0-6.7-2-9.2-4.8l-6.5,6c3.9,4.4,9.1,6,15.1,6c7.9,0,16.7-3.2,16.7-12.4c0-15.1-20.9-9.4-20.9-16.4
			c0-2.9,3.1-4.1,5.6-4.1c3.3,0,5.7,1.4,7.6,4L263.3,29.2z" class="st0"></path>
		<path d="M321.2,63h9.7V41.9c0-5.2,2.5-9.8,8.9-9.8c6.8,0,7.1,7.1,7.1,11.4V63h9.7V38.6c0-7.9-3.7-15.2-14.1-15.2
			c-6.4,0-10.1,3.3-11.9,7.2h-0.2v-6.2h-9.2V63z" class="st0"></path>
		<path d="M279.7,43.7c0,6,4.3,11.6,11.4,11.6c7.1,0,11.4-5.6,11.4-11.6c0-6.1-4.3-11.6-11.4-11.6
			C284,32.1,279.7,37.6,279.7,43.7z M270.1,43.7c0-12.2,9.4-20.3,21-20.3c4.6,0,8.7,1.7,12,4.2v-3.2h9.4v38.5h-9.4v-3.2
			c-3.3,2.6-7.3,4.3-12,4.3C279.4,64,270.1,55.8,270.1,43.7z" class="st1"></path>
		<g>
			<path d="M371.5,40.6c-5.3,0-9.6-4.2-9.6-9.3c0-5.1,4.3-9.3,9.6-9.3s9.6,4.2,9.6,9.3
				C381.1,36.4,376.8,40.6,371.5,40.6z M371.5,23.3c-4.6,0-8.4,3.6-8.4,8c0,4.4,3.8,8,8.4,8s8.4-3.6,8.4-8
				C379.9,26.9,376.1,23.3,371.5,23.3z" class="st1"></path>
		</g>
		<path d="M368.4,36.5V26.4h2.6c1.2,0,2.1,0.2,2.7,0.5c0.9,0.4,1.3,1.2,1.3,2.3c0,0.7-0.2,1.3-0.7,1.8
			c-0.4,0.5-1.1,0.8-1.9,0.9l2.9,4.7h-1.5l-2.8-4.6h-1.5v4.6H368.4z M369.6,27.5v3.3h1.1c1,0,1.6-0.1,2-0.2c0.7-0.2,1-0.7,1-1.5
			c0-1.1-0.8-1.7-2.5-1.7H369.6z" class="st1"></path>
	</g>
	<g>
		<path d="M421.1,56.1h-0.2c-0.8,1.3-1.7,2.4-2.9,3.3s-2.4,1.7-3.8,2.3c-1.3,0.6-2.8,1.1-4.3,1.4
			c-1.5,0.3-2.9,0.4-4.4,0.4c-2.9,0-5.6-0.5-8.1-1.4c-2.5-1-4.6-2.3-6.4-4.1c-1.8-1.7-3.1-3.8-4.1-6.2c-1-2.4-1.5-5-1.5-7.8
			c0-2.8,0.5-5.4,1.5-7.8c1-2.4,2.4-4.4,4.1-6.2c1.8-1.7,3.9-3.1,6.4-4.1c2.5-1,5.2-1.4,8.1-1.4c1.4,0,2.9,0.1,4.4,0.4
			c1.5,0.3,2.9,0.7,4.3,1.4c1.3,0.6,2.6,1.4,3.8,2.3c1.2,0.9,2.1,2,2.9,3.3h0.2V2h5v60.6h-5V56.1z M421.6,44.1
			c0-2.1-0.4-4.1-1.2-5.9c-0.8-1.8-2-3.4-3.4-4.8c-1.4-1.4-3.1-2.4-5-3.2c-1.9-0.8-4-1.2-6.3-1.2c-2.3,0-4.4,0.4-6.3,1.2
			c-1.9,0.8-3.5,1.9-4.8,3.2c-1.3,1.4-2.3,3-3,4.8c-0.7,1.8-1,3.8-1,5.9c0,2.1,0.3,4.1,1,5.9c0.7,1.8,1.7,3.4,3,4.8
			c1.3,1.4,2.9,2.4,4.8,3.2c1.9,0.8,4,1.2,6.3,1.2c2.3,0,4.3-0.4,6.3-1.2c1.9-0.8,3.6-1.9,5-3.2c1.4-1.4,2.6-3,3.4-4.8
			C421.2,48.1,421.6,46.2,421.6,44.1z" class="st1"></path>
		<path d="M468.5,55.6c-1.9,2.8-4.3,4.9-7.1,6.1c-2.8,1.2-6,1.8-9.4,1.8c-2.9,0-5.6-0.5-7.9-1.4c-2.4-1-4.4-2.3-6.1-4.1
			c-1.7-1.7-3-3.8-3.9-6.2c-0.9-2.4-1.4-5-1.4-7.9c0-2.8,0.5-5.3,1.4-7.7c0.9-2.4,2.3-4.4,4-6.1c1.7-1.7,3.7-3.1,6-4.1
			c2.3-1,4.9-1.5,7.7-1.5c2.9,0,5.5,0.5,7.7,1.5c2.2,1,4.1,2.3,5.6,3.9c1.5,1.6,2.7,3.5,3.4,5.6c0.8,2.1,1.2,4.2,1.2,6.3v3.4h-32
			c0,1,0.2,2.3,0.6,3.9c0.4,1.6,1.2,3.1,2.3,4.6c1.1,1.5,2.6,2.8,4.4,3.9c1.8,1.1,4.2,1.6,7.1,1.6c2.5,0,5-0.6,7.3-1.8
			c2.4-1.2,4.2-2.8,5.4-4.8L468.5,55.6z M464.7,40.9c0-1.7-0.3-3.2-1-4.7c-0.7-1.4-1.6-2.7-2.8-3.8c-1.2-1.1-2.6-2-4.2-2.6
			c-1.6-0.6-3.3-1-5.2-1c-2.7,0-4.9,0.5-6.7,1.6c-1.8,1.1-3.2,2.3-4.3,3.7c-1,1.4-1.8,2.7-2.2,4.1c-0.4,1.3-0.7,2.2-0.7,2.7H464.7z" class="st1"></path>
		<path d="M509.4,57.1c-1.9,2.2-4,3.8-6.4,4.9c-2.4,1-4.9,1.6-7.7,1.6c-2.9,0-5.6-0.5-8.1-1.4c-2.5-1-4.6-2.3-6.4-4.1
			c-1.8-1.7-3.1-3.8-4.1-6.2c-1-2.4-1.5-5-1.5-7.8c0-2.8,0.5-5.4,1.5-7.8c1-2.4,2.4-4.4,4.1-6.2c1.8-1.7,3.9-3.1,6.4-4.1
			c2.5-1,5.2-1.4,8.1-1.4c2.8,0,5.4,0.6,7.8,1.7c2.4,1.1,4.5,2.7,6.4,4.7l-4,2.9c-1.4-1.6-3-2.8-4.7-3.6c-1.7-0.9-3.6-1.3-5.5-1.3
			c-2.3,0-4.4,0.4-6.3,1.2c-1.9,0.8-3.5,1.9-4.8,3.2c-1.3,1.4-2.3,3-3,4.8c-0.7,1.8-1,3.8-1,5.9c0,2.1,0.3,4.1,1,5.9
			c0.7,1.8,1.7,3.4,3,4.8c1.3,1.4,2.9,2.4,4.8,3.2c1.9,0.8,4,1.2,6.3,1.2c2.1,0,4-0.5,5.7-1.4c1.7-0.9,3.2-2.2,4.5-3.7L509.4,57.1z" class="st1"></path>
		<path d="M511.7,44.1c0-2.8,0.5-5.4,1.5-7.8c1-2.4,2.4-4.4,4.1-6.2c1.8-1.7,3.9-3.1,6.4-4.1c2.5-1,5.2-1.4,8.1-1.4
			c2.9,0,5.6,0.5,8,1.4c2.4,1,4.6,2.3,6.4,4.1c1.8,1.7,3.2,3.8,4.2,6.2c1,2.4,1.5,5,1.5,7.8c0,2.8-0.5,5.4-1.5,7.8
			c-1,2.4-2.4,4.4-4.2,6.2c-1.8,1.7-3.9,3.1-6.4,4.1c-2.4,1-5.1,1.4-8,1.4c-2.9,0-5.6-0.5-8.1-1.4c-2.5-1-4.6-2.3-6.4-4.1
			c-1.8-1.7-3.1-3.8-4.1-6.2C512.2,49.5,511.7,46.9,511.7,44.1z M516.7,44.1c0,2.1,0.3,4.1,1,5.9c0.7,1.8,1.7,3.4,3,4.8
			c1.3,1.4,2.9,2.4,4.8,3.2c1.9,0.8,4,1.2,6.3,1.2s4.4-0.4,6.3-1.2c1.9-0.8,3.5-1.9,4.8-3.2s2.3-3,3-4.8c0.7-1.8,1-3.8,1-5.9
			c0-2.1-0.3-4.1-1-5.9c-0.7-1.8-1.7-3.4-3-4.8c-1.3-1.4-2.9-2.4-4.8-3.2c-1.9-0.8-4-1.2-6.3-1.2s-4.4,0.4-6.3,1.2
			c-1.9,0.8-3.5,1.9-4.8,3.2c-1.3,1.4-2.3,3-3,4.8C517,40,516.7,42,516.7,44.1z" class="st1"></path>
	</g>
</g>
</svg>
