<?xml version="1.0" standalone="no"?>
<!DOCTYPE svg PUBLIC "-//W3C//DTD SVG 20010904//EN"
 "http://www.w3.org/TR/2001/REC-SVG-20010904/DTD/svg10.dtd">
<svg version="1.0" xmlns="http://www.w3.org/2000/svg"
 width="1358.000000pt" height="1600.000000pt" viewBox="0 0 1358.000000 1600.000000"
 preserveAspectRatio="xMidYMid meet">
<metadata>
Created by potrace 1.16, written by Peter Selinger 2001-2019
</metadata>
<g transform="translate(0.000000,1600.000000) scale(0.100000,-0.100000)"
fill="#000000" stroke="none">
<path d="M866 7958 c-3 -18 -8 -49 -11 -69 -5 -36 -5 -36 36 -43 60 -10 147
-42 191 -71 l38 -25 0 -924 0 -923 -40 -27 c-47 -31 -120 -60 -173 -70 -43 -8
-43 -9 -51 -89 l-6 -57 507 2 507 3 13 60 c7 33 12 63 13 67 0 3 -22 11 -48
17 -73 15 -160 50 -188 74 l-24 22 0 919 c-1 735 2 921 12 934 18 22 142 79
188 87 38 6 38 7 45 58 3 29 9 60 11 70 5 16 -24 17 -505 17 l-510 0 -5 -32z
M5530 7631 c-68 -22 -120 -67 -120 -102 0 -7 18 -27 40 -46 58 -50 70 -119 31
-191 -14 -27 -31 -28 -80 -3 -67 35 -160 61 -264 76 -132 19 -231 19 -342 -1
-266 -46 -439 -186 -507 -409 -32 -106 -30 -283 5 -383 57 -164 184 -285 365
-348 28 -10 52 -21 52 -24 -1 -3 -69 -52 -152 -109 l-150 -103 6 -60 c4 -32
16 -80 27 -106 l20 -47 -23 -15 c-13 -8 -54 -44 -91 -80 -54 -50 -78 -84 -110
-150 -41 -83 -42 -87 -42 -190 0 -90 4 -112 24 -152 71 -144 235 -231 531
-279 114 -19 474 -16 588 5 350 64 532 238 532 510 0 193 -84 342 -238 424
-135 72 -234 91 -497 98 -229 6 -289 16 -311 50 -15 23 -14 26 48 104 l63 80
100 0 c338 0 609 182 664 448 32 154 -7 368 -89 487 l-29 42 51 33 c59 38 133
134 149 193 39 144 -27 245 -163 253 -35 2 -74 0 -88 -5z m-433 -446 c106 -53
153 -184 153 -423 0 -235 -38 -349 -134 -399 -48 -25 -162 -28 -226 -6 -75 26
-105 70 -125 183 -28 162 -14 432 29 535 50 120 185 169 303 110z m109 -1535
c96 -17 160 -48 203 -96 47 -53 65 -113 59 -197 -8 -126 -77 -207 -211 -249
-94 -29 -319 -32 -408 -5 -83 25 -147 73 -178 132 -23 44 -26 62 -26 150 0 88
3 107 27 155 15 30 39 69 55 87 l28 32 196 1 c107 0 222 -5 255 -10z M2669
7375 c-5 -4 -225 -49 -494 -100 -43 -9 -80 -17 -81 -18 0 -1 -4 -30 -7 -64 -7
-69 -13 -64 73 -77 49 -8 96 -39 117 -78 17 -30 18 -76 21 -596 l3 -562 -46
-29 c-24 -15 -65 -34 -89 -41 -48 -13 -56 -29 -56 -111 l0 -39 440 0 440 0 0
28 c0 15 3 43 6 63 l6 36 -63 22 c-35 13 -83 34 -106 47 l-43 25 0 538 0 538
29 40 c54 75 147 132 238 148 116 19 203 -34 244 -152 23 -68 23 -71 27 -584
l3 -515 -38 -36 c-22 -19 -63 -43 -91 -53 l-52 -19 0 -63 0 -63 438 2 437 3 5
61 5 62 -55 17 c-30 9 -81 31 -112 47 l-58 31 0 531 c0 503 -1 535 -20 605
-11 40 -30 92 -42 114 -32 64 -135 160 -202 191 -224 103 -514 55 -699 -115
-44 -40 -69 -56 -72 -47 -2 7 -9 51 -15 97 -5 46 -11 85 -12 86 -6 5 -67 35
-71 35 -2 0 -6 -2 -8 -5z M6535 7364 c-213 -33 -374 -123 -429 -239 -37 -78
-39 -194 -4 -260 17 -32 79 -92 114 -112 67 -37 201 -27 271 20 51 35 103 120
87 142 -55 74 -65 95 -66 143 0 110 69 170 217 188 65 8 127 -9 171 -48 75
-66 94 -141 101 -399 l5 -196 -113 -7 c-359 -22 -486 -45 -636 -119 -186 -90
-275 -266 -246 -485 13 -100 43 -163 108 -227 95 -96 203 -129 404 -123 108 3
149 9 201 27 84 29 192 93 252 148 53 50 50 52 68 -59 5 -37 13 -74 16 -82 5
-14 45 -16 315 -16 l308 0 6 38 c3 20 8 46 10 58 4 18 -3 23 -48 33 -75 17
-157 66 -157 94 0 12 -1 256 -3 542 -3 509 -4 521 -26 585 -72 208 -234 316
-529 355 -137 18 -276 18 -397 -1z m465 -1118 l0 -195 -51 -51 c-58 -59 -136
-111 -192 -130 -57 -18 -170 -9 -204 16 -63 47 -94 122 -95 228 0 81 16 136
55 187 58 77 156 111 367 128 52 5 101 9 108 10 9 1 12 -44 12 -193z M8215
7325 c-143 -29 -276 -56 -296 -59 l-36 -6 -6 -63 c-6 -68 -1 -76 48 -77 37 -1
104 -31 126 -56 37 -44 39 -75 39 -636 l0 -548 -45 -29 c-24 -16 -64 -34 -89
-41 -39 -11 -44 -15 -50 -48 -3 -21 -6 -52 -6 -69 l0 -33 440 0 440 0 0 28 c0
15 3 43 6 63 l6 36 -63 22 c-35 13 -83 35 -106 50 l-43 26 0 536 0 536 28 39
c73 101 159 148 272 148 87 1 125 -16 165 -74 54 -77 55 -92 55 -659 0 -516 0
-525 -20 -546 -21 -22 -119 -75 -139 -75 -6 0 -11 -19 -11 -42 0 -24 -3 -53
-6 -65 l-6 -23 435 0 434 0 7 38 c14 84 12 88 -57 112 -35 12 -81 34 -102 49
l-40 27 -3 528 c-3 602 -9 551 88 639 76 68 130 91 222 91 71 1 79 -1 115 -30
21 -17 47 -46 57 -64 42 -72 46 -119 46 -657 l0 -513 -41 -29 c-22 -17 -60
-38 -85 -47 -36 -14 -44 -21 -44 -43 0 -14 -3 -43 -6 -63 l-7 -38 440 0 441 0
6 31 c3 17 6 46 6 64 0 32 -2 34 -65 54 -35 12 -85 33 -110 48 l-45 28 0 520
c-1 571 -3 595 -60 711 -165 335 -705 353 -957 32 l-46 -58 -29 52 c-80 147
-250 238 -444 238 -153 0 -324 -66 -436 -170 -37 -33 -69 -57 -71 -53 -3 5 -8
33 -11 63 -15 126 -16 129 -48 145 -17 8 -32 14 -32 13 -1 0 -118 -25 -261
-53z M11539 7365 c-297 -43 -469 -184 -469 -384 0 -109 79 -214 183 -242 51
-14 161 -6 202 15 44 22 95 78 110 122 13 37 12 39 -20 77 -73 85 -47 209 53
261 55 28 146 41 203 28 87 -20 134 -67 167 -167 14 -45 35 -329 30 -414 l-3
-56 -100 -8 c-250 -19 -406 -38 -480 -57 -280 -75 -415 -228 -415 -472 0 -224
102 -358 313 -414 67 -18 274 -18 350 0 104 25 230 94 318 173 l37 34 6 -28
c2 -15 10 -61 17 -100 l12 -73 312 0 313 0 6 31 c3 17 6 44 6 60 0 25 -5 29
-37 35 -52 10 -102 31 -140 60 l-33 25 0 518 c0 305 -4 540 -10 572 -15 79
-67 177 -125 235 -145 145 -484 216 -806 169z m455 -942 c4 -9 6 -96 6 -192
l-1 -176 -67 -66 c-87 -85 -163 -123 -257 -127 -98 -5 -149 22 -189 101 -25
49 -29 68 -30 144 0 105 14 152 63 206 61 68 156 99 351 116 52 5 100 9 106
10 7 0 15 -7 18 -16z M10898 4885 c-8 -8 -220 -49 -408 -80 -91 -14 -174 -28
-186 -31 -18 -3 -22 -13 -28 -66 -7 -68 -1 -78 48 -78 52 0 114 -38 139 -84
l22 -41 3 -912 3 -912 -41 -30 c-23 -16 -64 -37 -91 -46 -52 -18 -53 -19 -63
-107 l-6 -48 450 0 450 0 0 34 c0 18 3 47 6 64 6 29 5 30 -62 52 -38 12 -88
34 -111 48 l-43 27 0 1091 0 1090 -35 17 c-40 19 -40 19 -47 12z M9563 4851
c-52 -13 -96 -44 -128 -90 -28 -40 -30 -49 -30 -134 0 -108 22 -161 83 -202
81 -53 255 -60 348 -13 115 57 151 240 71 359 -40 60 -95 82 -211 85 -56 2
-115 0 -133 -5z M2390 4472 l0 -330 58 -3 c31 -3 83 -3 114 -1 l57 4 6 36 c17
112 39 195 69 257 56 118 50 114 206 125 74 5 154 9 178 10 l42 0 0 -938 0
-937 -47 -31 c-50 -33 -112 -57 -176 -69 l-37 -7 0 -53 c0 -29 -3 -60 -6 -69
-6 -14 43 -16 504 -16 l510 0 7 53 c3 28 8 59 11 68 3 12 -14 21 -80 38 -46
12 -105 36 -130 52 l-46 29 0 941 0 942 138 -6 c209 -10 218 -12 247 -61 33
-57 83 -210 94 -290 5 -38 12 -70 15 -73 6 -7 212 -7 223 0 4 3 7 152 5 331
l-3 326 -42 -7 c-56 -10 -1603 -10 -1779 0 l-138 8 0 -329z M8333 4428 c-84
-133 -210 -243 -369 -322 -51 -25 -97 -46 -103 -46 -7 0 -11 -28 -11 -80 l0
-80 125 0 124 0 3 -587 3 -588 24 -59 c42 -104 133 -180 255 -212 61 -17 224
-18 298 -3 127 26 250 82 347 159 l51 41 -32 57 -32 58 -66 -33 c-150 -75
-287 -63 -337 29 -17 30 -18 76 -21 586 l-3 552 226 0 225 0 0 110 0 110 -220
0 -220 0 0 185 0 185 -114 0 -114 0 -39 -62z M4986 4155 c-415 -70 -647 -375
-649 -855 -1 -301 71 -511 232 -671 85 -84 170 -132 306 -171 72 -21 101 -23
280 -23 235 0 304 15 442 92 78 44 253 177 253 192 0 4 -29 36 -65 71 l-66 63
-37 -32 c-135 -114 -324 -172 -502 -156 -239 22 -330 153 -346 498 l-7 137
495 0 495 0 47 70 c53 80 57 116 32 251 -45 234 -144 387 -301 466 -143 73
-407 102 -609 68z m272 -170 c71 -30 108 -82 136 -191 16 -64 40 -309 32 -323
-3 -4 -76 -11 -163 -14 -87 -4 -220 -10 -297 -13 l-138 -7 7 94 c19 253 97
410 230 457 45 16 151 14 193 -3z M9786 4154 c-53 -13 -411 -77 -511 -91 -57
-8 -65 -18 -65 -82 l0 -57 60 -12 c72 -15 125 -57 140 -110 6 -23 10 -244 10
-585 l0 -547 -45 -29 c-24 -16 -64 -34 -89 -41 -42 -11 -44 -14 -50 -57 -3
-25 -6 -56 -6 -69 l0 -24 444 0 445 0 6 48 c3 26 8 55 9 64 3 13 -9 21 -52 34
-62 18 -128 48 -154 72 -17 14 -18 62 -18 743 l0 728 -30 16 c-16 8 -30 15
-32 14 -2 -1 -29 -8 -62 -15z M6026 4124 c-3 -9 -9 -40 -12 -70 -6 -48 -5 -54
12 -54 11 0 42 -11 70 -24 55 -25 37 -3 412 -535 l151 -213 -102 -117 c-56
-64 -173 -201 -260 -303 -155 -182 -173 -198 -247 -216 -31 -7 -35 -12 -42
-53 -4 -24 -10 -54 -13 -66 l-5 -23 318 0 319 0 12 57 c6 31 11 60 11 64 0 4
-26 15 -57 24 -31 9 -76 26 -100 37 l-43 20 47 57 c27 31 58 67 70 81 11 14
64 76 118 138 53 61 99 112 103 112 4 0 17 -15 29 -33 12 -17 76 -108 142
-202 l120 -170 -29 -18 c-17 -10 -48 -21 -70 -24 -36 -5 -40 -8 -46 -42 -3
-20 -10 -51 -14 -68 l-8 -33 423 0 424 0 6 38 c15 98 20 88 -43 111 -70 25
-81 36 -219 231 -60 85 -174 245 -252 354 -78 110 -140 203 -139 207 2 4 106
134 232 288 237 290 253 305 338 319 45 8 42 1 62 110 l6 32 -310 0 -310 0 -7
-27 c-3 -16 -7 -46 -7 -67 -1 -34 2 -40 26 -47 44 -12 118 -52 118 -63 0 -16
-270 -351 -283 -351 -5 0 -69 83 -140 184 -147 207 -145 199 -42 222 l53 12 6
52 c3 30 9 60 12 69 6 14 -35 16 -414 16 -374 0 -421 -2 -426 -16z"/>
</g>
</svg>
