<?xml version="1.0" encoding="UTF-8"?>
<svg xmlns="http://www.w3.org/2000/svg" viewBox="0 0 1358.000000 1600.000000" preserveAspectRatio="xMidYMid meet" aria-label="Ingama Textil logo">
<g transform="translate(0.000000,1600.000000) scale(0.100000,-0.100000)"
  fill="#8a6c26" stroke="none">
<path d="M6739 15630 c-25 -4 -57 -14 -70 -21 -28 -16 -125 -89 -154 -116 -11
-10 -47 -40 -80 -68 -33 -27 -78 -66 -100 -86 -22 -20 -96 -83 -163 -140 -68
-57 -147 -124 -175 -148 -29 -24 -72 -60 -97 -80 -38 -31 -145 -125 -160 -141
-3 -3 -27 -24 -55 -45 -27 -22 -56 -46 -64 -53 -8 -7 -44 -38 -80 -68 -36 -30
-94 -78 -127 -107 -34 -28 -124 -103 -200 -166 -77 -63 -146 -122 -154 -131
-8 -9 -33 -29 -55 -45 -43 -31 -55 -42 -180 -156 -44 -40 -102 -90 -130 -112
-27 -21 -66 -53 -85 -71 -19 -17 -52 -44 -73 -59 -20 -15 -52 -43 -70 -61 -17
-17 -54 -50 -82 -71 -27 -22 -57 -47 -65 -55 -8 -9 -35 -31 -60 -50 -39 -30
-386 -325 -400 -340 -3 -3 -27 -23 -55 -45 -27 -21 -52 -42 -55 -45 -3 -3 -27
-23 -55 -45 -27 -22 -72 -60 -100 -86 -27 -26 -78 -70 -113 -98 -68 -57 -101
-103 -120 -168 -16 -53 -18 -4327 -3 -4364 24 -57 59 -79 126 -79 61 0 98 21
121 67 18 37 19 104 22 2173 l2 2134 38 39 c20 22 55 53 77 69 22 16 63 51 90
76 67 63 120 107 200 166 22 17 42 33 45 36 3 3 28 23 55 45 28 21 73 60 100
86 28 27 66 61 87 76 55 42 139 111 178 147 19 17 62 54 95 81 33 28 62 52 65
55 3 3 28 24 55 45 28 22 52 43 55 46 3 3 57 48 120 99 136 112 239 199 335
285 62 55 254 216 357 300 20 16 65 54 100 84 68 57 78 66 153 126 28 22 68
56 90 76 22 20 63 55 90 77 28 22 68 59 90 82 37 39 123 113 213 182 19 15 54
45 76 65 23 21 68 61 101 88 33 28 65 55 70 61 6 6 26 22 45 34 19 13 37 27
40 30 29 33 118 90 140 90 22 0 105 -53 140 -90 3 -3 32 -27 65 -55 33 -27 67
-57 75 -65 8 -9 38 -34 66 -56 72 -55 133 -105 248 -204 54 -47 124 -105 155
-129 31 -25 63 -52 71 -60 8 -9 33 -29 55 -46 45 -33 203 -163 369 -305 61
-52 138 -117 171 -145 33 -27 71 -60 85 -71 45 -39 167 -138 226 -184 32 -25
83 -68 113 -96 31 -28 72 -61 91 -75 19 -13 53 -42 75 -64 22 -22 63 -58 90
-80 28 -22 52 -42 55 -45 3 -3 28 -23 55 -45 28 -22 97 -80 154 -130 57 -49
120 -103 141 -120 102 -82 187 -151 200 -165 8 -9 38 -33 65 -55 28 -22 73
-60 101 -85 28 -25 88 -76 134 -115 46 -38 101 -87 122 -108 l38 -38 0 -2064
c0 -1863 -2 -2065 -16 -2079 -14 -14 -94 -16 -732 -16 -394 0 -727 3 -739 6
-15 4 -26 18 -33 43 -6 24 -10 810 -10 2312 l0 2276 -25 11 c-19 9 -438 12
-1646 12 l-1619 0 -45 -21 c-27 -13 -53 -35 -67 -58 l-23 -36 0 -2330 0 -2331
34 -42 c62 -79 45 -77 586 -77 462 0 481 1 514 20 69 41 89 100 92 268 2 129
-24 294 -80 512 -17 66 -38 134 -46 152 -8 17 -15 34 -15 38 0 6 -8 26 -46
110 -96 216 -191 381 -268 465 -18 19 -47 54 -66 78 -18 24 -61 71 -96 105
-89 85 -87 102 18 157 96 50 129 70 237 146 139 98 177 129 291 234 52 48 111
100 130 116 101 83 438 467 516 589 10 17 27 39 36 49 10 11 18 24 18 29 0 4
13 27 28 50 16 23 43 71 62 107 18 36 45 83 59 105 31 45 107 200 127 258 7
21 20 50 29 65 21 38 140 405 155 477 6 33 21 101 31 150 11 50 27 153 35 230
8 77 19 144 25 150 11 11 711 20 765 10 22 -4 34 -13 38 -28 3 -13 6 -1022 6
-2242 1 -1499 5 -2234 12 -2262 12 -49 51 -94 105 -120 36 -17 85 -18 894 -18
l855 0 48 25 c30 15 60 41 79 70 l32 45 0 2170 0 2170 -24 45 c-43 81 -73 112
-270 277 -14 12 -50 41 -79 65 -122 99 -330 274 -342 287 -3 3 -30 26 -60 50
-30 25 -66 55 -80 67 -32 30 -129 110 -244 203 -50 40 -107 88 -126 105 -19
17 -57 49 -85 71 -27 22 -52 42 -55 45 -15 17 -163 142 -210 178 -85 65 -304
246 -340 281 -16 16 -229 189 -288 234 -20 15 -61 51 -91 80 -31 29 -101 88
-156 132 -55 44 -107 87 -115 96 -8 8 -26 22 -39 31 -13 9 -57 47 -99 84 -41
38 -90 80 -108 94 -67 51 -256 212 -324 275 -59 55 -139 111 -181 129 -46 19
-124 26 -180 16z m-693 -2685 c15 -23 16 -59 11 -363 -4 -233 -12 -400 -27
-542 -25 -248 -30 -277 -85 -505 -88 -362 -182 -591 -342 -834 -93 -143 -156
-217 -235 -276 -69 -52 -104 -58 -118 -19 -7 17 -9 469 -8 1279 3 1043 5 1255
17 1268 12 15 52 17 392 17 l379 0 16 -25z m1078 9 c43 -42 3 -373 -79 -658
-56 -195 -76 -246 -179 -461 -113 -234 -272 -467 -436 -640 -37 -38 -91 -96
-121 -129 -142 -154 -339 -326 -373 -326 -18 0 2 60 68 199 97 205 160 407
226 731 49 240 78 563 87 968 5 242 9 307 20 318 12 12 81 14 393 14 331 0
381 -2 394 -16z m-1766 -3010 c81 -72 158 -168 266 -329 162 -241 256 -474
302 -745 30 -184 32 -265 4 -280 -12 -7 -131 -9 -342 -8 l-322 3 -13 25 c-10
20 -12 167 -11 695 2 369 7 676 11 683 15 23 42 12 105 -44z M3325 6370 c0
-267 1 -376 2 -242 2 133 2 351 0 485 -1 133 -2 24 -2 -243z M11994 6720 c0
-52 1 -74 3 -47 2 26 2 68 0 95 -2 26 -3 4 -3 -48z M11994 6250 c0 -96 2 -136
3 -87 2 48 2 126 0 175 -1 48 -3 8 -3 -88z M4927 6173 c-3 -5 16 -7 41 -5 80
5 90 9 25 11 -34 0 -64 -2 -66 -6z M6478 5633 c12 -2 30 -2 40 0 9 3 -1 5 -23
4 -22 0 -30 -2 -17 -4z M11473 5633 c15 -2 37 -2 50 0 12 2 0 4 -28 4 -27 0
-38 -2 -22 -4z M4354 4480 c0 -179 2 -252 3 -162 2 89 2 235 0 325 -1 89 -3
16 -3 -163z M2998 4783 c34 -2 88 -2 120 0 31 2 3 3 -63 3 -66 0 -92 -1 -57
-3z M3913 4783 c26 -2 67 -2 90 0 23 2 2 3 -48 3 -49 0 -68 -1 -42 -3z M9044
4010 c0 -63 1 -89 3 -57 2 31 2 83 0 115 -2 31 -3 5 -3 -58z M5423 3505 c0
-22 2 -30 4 -17 2 12 2 30 0 40 -3 9 -5 -1 -4 -23z M8910 1630 c-43 -12 -66
-23 -68 -34 -3 -11 4 -16 22 -16 15 0 30 -8 36 -19 6 -12 10 -126 10 -300 l0
-279 -35 -12 c-19 -6 -35 -18 -35 -26 0 -11 22 -14 115 -14 90 0 115 3 115 14
0 7 -15 17 -32 22 l-33 10 -3 157 c-3 172 1 187 51 217 46 29 98 26 128 -6 23
-25 24 -30 24 -192 l0 -167 -32 -15 c-63 -29 -41 -40 77 -40 88 0 110 3 110
14 0 8 -16 20 -35 26 l-35 12 0 169 c0 198 -5 215 -75 249 -58 28 -119 23
-175 -14 l-40 -26 0 139 c0 102 -3 140 -12 143 -7 3 -42 -3 -78 -12z M2485
1493 c-20 -65 -50 -158 -65 -208 -16 -49 -43 -138 -61 -197 -32 -107 -47 -128
-94 -128 -8 0 -15 -9 -15 -20 0 -19 7 -20 120 -20 111 0 120 1 120 19 0 14 -9
21 -38 26 -64 10 -64 12 -39 101 l23 79 104 3 c76 2 106 -1 111 -10 16 -25 50
-141 45 -153 -2 -7 -23 -16 -45 -20 -31 -5 -41 -11 -41 -26 0 -18 9 -19 125
-19 112 0 125 2 125 18 0 9 -15 24 -33 32 -28 13 -36 26 -64 110 -17 52 -65
192 -105 310 -74 215 -74 215 -105 218 l-31 3 -37 -118z m103 -157 c23 -68 42
-127 42 -130 0 -3 -38 -6 -85 -6 -47 0 -85 3 -85 8 0 16 74 252 79 252 4 0 25
-56 49 -124z M5475 1545 c-52 -74 -56 -111 -8 -77 16 11 48 38 73 60 38 34 43
43 34 59 -23 38 -49 27 -99 -42z M7806 1483 c-19 -37 -64 -79 -99 -92 -40 -15
-29 -35 21 -39 l41 -3 3 -194 c3 -183 4 -196 24 -216 30 -30 102 -36 160 -14
62 24 52 40 -27 40 -63 0 -64 0 -70 30 -4 17 -7 103 -8 193 l-1 162 70 0 c68
0 70 1 70 25 0 24 -2 25 -64 25 l-65 0 -3 52 c-4 63 -28 77 -52 31z M10325
1490 c-3 -5 1 -20 10 -33 30 -46 -4 -76 -63 -56 -54 18 -173 7 -210 -19 -89
-64 -77 -235 18 -279 22 -10 40 -21 40 -24 0 -5 -49 -46 -78 -64 -1 -1 3 -16
9 -33 10 -29 8 -34 -25 -65 -32 -31 -36 -40 -36 -84 0 -35 6 -58 20 -75 41
-53 169 -80 275 -58 111 22 160 87 135 176 -22 78 -87 114 -206 114 -43 0 -65
5 -74 16 -22 25 26 65 91 75 119 19 178 121 135 234 l-18 45 31 26 c33 28 43
78 19 102 -14 14 -64 16 -73 2z m-65 -145 c22 -22 25 -34 25 -94 0 -82 -16
-117 -62 -132 -49 -16 -97 3 -117 45 -20 43 -20 119 0 161 28 59 105 68 154
20z m49 -449 c23 -21 29 -83 10 -118 -21 -39 -115 -61 -172 -39 -66 25 -88
102 -46 156 21 26 25 27 104 23 64 -2 88 -7 104 -22z M3611 1409 c-18 -4 -46
-16 -62 -28 -35 -26 -35 -26 -43 5 -7 28 -15 29 -108 3 -40 -10 -53 -39 -19
-39 46 0 51 -21 51 -201 l0 -170 -35 -15 c-19 -8 -35 -21 -35 -29 0 -12 20
-15 115 -15 95 0 115 3 115 15 0 8 -16 21 -35 29 l-35 15 0 159 c0 145 2 162
20 185 24 30 81 51 115 43 46 -12 54 -39 56 -206 1 -85 1 -161 0 -168 0 -7
-17 -20 -36 -29 -19 -9 -35 -23 -35 -30 0 -10 27 -13 115 -13 105 0 115 2 115
19 0 12 -11 21 -32 27 l-33 10 -3 158 c-2 132 0 163 14 183 21 32 78 56 115
48 53 -12 59 -32 59 -218 l0 -168 -35 -15 c-19 -8 -35 -21 -35 -29 0 -12 20
-15 115 -15 95 0 115 3 115 15 0 8 -16 21 -35 29 l-35 15 0 156 c0 169 -7 201
-55 245 -23 22 -36 25 -99 25 -64 0 -77 -3 -109 -28 l-36 -27 -27 25 c-15 14
-30 25 -33 25 -3 0 -22 4 -41 8 -19 5 -50 5 -69 1z M4440 1414 c-78 -12 -95
-19 -131 -51 -95 -86 -94 -311 2 -398 89 -80 261 -63 323 33 37 55 52 154 37
233 -15 77 -41 121 -86 149 -32 20 -112 38 -145 34z m80 -59 c51 -26 64 -66
65 -190 0 -93 -3 -115 -21 -145 -25 -43 -56 -60 -111 -60 -85 0 -123 64 -123
207 0 112 23 172 75 194 32 13 84 10 115 -6z M5035 1410 c-37 -8 -68 -24 -85
-44 -18 -23 -27 -20 -33 14 -7 35 -17 36 -93 14 -52 -15 -76 -44 -36 -44 11 0
26 -8 36 -19 14 -16 16 -40 14 -187 l-3 -168 -32 -10 c-22 -6 -33 -15 -33 -28
0 -17 8 -18 112 -16 121 3 146 16 84 42 l-36 15 0 159 0 160 32 31 c58 57 137
50 163 -14 11 -25 15 -76 15 -184 l0 -149 -35 -16 c-19 -9 -35 -23 -35 -31 0
-12 20 -15 110 -15 93 0 110 2 110 16 0 8 -16 22 -35 30 l-35 14 0 168 c0 148
-2 171 -20 199 -30 50 -100 77 -165 63z M5428 1401 c-62 -18 -92 -37 -67 -45
8 -2 22 -7 32 -10 30 -9 37 -51 37 -210 l0 -154 -32 -13 c-32 -12 -48 -26 -48
-41 0 -5 52 -8 115 -8 95 0 115 3 115 15 0 8 -16 21 -35 29 l-35 15 -2 217
c-2 135 -7 218 -13 219 -5 2 -36 -5 -67 -14z M5776 1409 c-77 -18 -116 -57
-116 -114 0 -25 33 -55 60 -55 9 0 25 6 36 14 18 14 18 16 1 44 -22 38 -14 58
30 73 42 14 95 5 117 -20 23 -25 35 -161 15 -161 -8 0 -47 -5 -86 -10 -129
-17 -183 -61 -183 -152 0 -56 19 -82 74 -103 37 -14 53 -15 97 -6 30 7 64 19
77 27 24 16 42 11 42 -12 0 -11 16 -14 70 -14 62 0 70 2 70 19 0 12 -11 21
-32 27 l-33 10 -5 175 c-6 194 -11 213 -72 241 -44 21 -115 28 -162 17z m152
-326 c3 -56 1 -64 -25 -87 -62 -58 -135 -58 -159 -1 -29 70 9 130 92 145 87
14 89 13 92 -57z M6558 1405 c-69 -17 -97 -40 -126 -103 -42 -92 -34 -257 16
-318 49 -59 143 -84 225 -60 68 20 112 53 97 71 -9 11 -17 10 -44 -6 -48 -28
-114 -34 -159 -15 -47 19 -67 63 -67 146 l0 60 144 0 c173 0 173 0 153 89 -8
33 -22 72 -31 86 -32 48 -127 71 -208 50z m123 -51 c16 -14 46 -120 37 -129
-1 -2 -51 -7 -110 -11 l-108 -7 0 38 c0 52 28 105 64 121 37 17 91 11 117 -12z
M7140 1408 c-19 -5 -49 -20 -66 -33 -35 -26 -44 -24 -44 12 0 15 -6 23 -17 23
-29 0 -133 -32 -133 -41 0 -5 16 -15 35 -23 l35 -15 0 -176 0 -176 -35 -15
c-19 -8 -35 -21 -35 -29 0 -12 20 -15 115 -15 95 0 115 3 115 15 0 8 -16 21
-35 29 l-35 15 0 154 c0 143 2 156 22 182 23 29 74 55 108 55 12 0 35 -13 51
-29 l29 -29 0 -167 0 -166 -35 -15 c-19 -8 -35 -21 -35 -29 0 -12 20 -15 115
-15 97 0 115 2 115 16 0 8 -14 20 -30 26 -17 5 -34 18 -39 27 -5 9 -9 88 -10
175 -2 128 -5 165 -19 188 -28 47 -108 73 -172 56z M8103 1399 c-69 -22 -78
-34 -36 -50 15 -6 31 -16 35 -22 4 -7 8 -77 8 -155 0 -193 18 -230 120 -253
52 -12 106 2 142 36 15 14 29 25 31 25 3 0 7 -13 11 -30 5 -30 6 -30 71 -30
56 0 65 3 65 18 0 11 -13 23 -35 31 l-35 12 0 214 c0 118 -4 216 -8 219 -13 8
-142 -33 -142 -45 0 -5 8 -12 18 -16 49 -17 52 -28 52 -177 -1 -152 -4 -162
-57 -198 -40 -26 -89 -23 -118 7 -25 24 -25 25 -25 223 0 173 -2 201 -16 206
-9 3 -16 6 -17 5 -1 0 -30 -10 -64 -20z M9612 1409 c-97 -19 -143 -70 -163
-178 -22 -128 19 -249 99 -289 55 -28 106 -35 169 -22 114 24 170 117 161 268
-8 124 -62 202 -153 217 -22 4 -47 8 -55 10 -8 1 -35 -1 -58 -6z m132 -68 c32
-30 46 -84 46 -176 0 -140 -31 -195 -117 -202 -101 -8 -137 45 -137 202 0 112
19 169 64 193 37 19 116 10 144 -17z M10640 1412 c-85 -12 -131 -49 -133 -107
-2 -57 59 -88 97 -49 20 19 20 33 1 40 -19 8 -20 48 -1 63 22 19 83 25 115 12
37 -16 51 -48 51 -121 0 -33 -1 -60 -3 -60 -1 0 -40 -5 -86 -10 -92 -12 -123
-25 -161 -65 -36 -38 -36 -122 -1 -159 47 -50 137 -56 209 -15 42 24 52 24 52
-1 0 -18 7 -20 75 -20 60 0 75 3 75 15 0 8 -15 21 -34 29 l-35 14 -3 171 c-3
153 -5 172 -24 198 -34 47 -120 76 -194 65z m130 -332 c0 -70 0 -70 -38 -95
-20 -13 -52 -27 -69 -31 -84 -17 -118 125 -40 168 22 12 80 24 125 27 21 1 22
-3 22 -69z M11256 1409 c-16 -4 -44 -22 -61 -39 -27 -27 -33 -29 -39 -15 -3 9
-6 25 -6 36 0 23 -19 24 -88 4 -65 -20 -72 -31 -28 -49 44 -18 48 -37 44 -225
l-3 -144 -30 -10 c-29 -10 -45 -23 -45 -39 0 -5 54 -8 120 -8 100 0 120 2 120
15 0 8 -18 22 -40 31 l-40 16 0 127 c0 146 9 187 49 225 38 37 66 32 67 -12 0
-41 14 -54 50 -50 55 6 69 92 20 123 -32 20 -58 24 -90 14z M2986 1392 c-59
-20 -68 -37 -26 -45 44 -9 51 -38 48 -210 l-3 -151 -30 -16 c-30 -15 -45 -29
-45 -42 0 -5 54 -8 121 -8 107 0 120 2 117 17 -2 9 -19 22 -38 28 l-35 12 -3
141 c-2 127 0 146 18 182 34 66 105 82 99 23 -4 -38 7 -53 40 -53 37 0 51 17
51 62 0 53 -27 78 -85 78 -37 0 -52 -6 -83 -35 -42 -38 -52 -37 -52 7 0 34
-20 36 -94 10z"/>
</g>
<g transform="translate(0.000000,1600.000000) scale(0.100000,-0.100000)"
  fill="#473f3c" stroke="none">
<path d="M866 7958 c-3 -18 -8 -49 -11 -69 -5 -36 -5 -36 36 -43 60 -10 147
-42 191 -71 l38 -25 0 -924 0 -923 -40 -27 c-47 -31 -120 -60 -173 -70 -43 -8
-43 -9 -51 -89 l-6 -57 507 2 507 3 13 60 c7 33 12 63 13 67 0 3 -22 11 -48
17 -73 15 -160 50 -188 74 l-24 22 0 919 c-1 735 2 921 12 934 18 22 142 79
188 87 38 6 38 7 45 58 3 29 9 60 11 70 5 16 -24 17 -505 17 l-510 0 -5 -32z
M5530 7631 c-68 -22 -120 -67 -120 -102 0 -7 18 -27 40 -46 58 -50 70 -119 31
-191 -14 -27 -31 -28 -80 -3 -67 35 -160 61 -264 76 -132 19 -231 19 -342 -1
-266 -46 -439 -186 -507 -409 -32 -106 -30 -283 5 -383 57 -164 184 -285 365
-348 28 -10 52 -21 52 -24 -1 -3 -69 -52 -152 -109 l-150 -103 6 -60 c4 -32
16 -80 27 -106 l20 -47 -23 -15 c-13 -8 -54 -44 -91 -80 -54 -50 -78 -84 -110
-150 -41 -83 -42 -87 -42 -190 0 -90 4 -112 24 -152 71 -144 235 -231 531
-279 114 -19 474 -16 588 5 350 64 532 238 532 510 0 193 -84 342 -238 424
-135 72 -234 91 -497 98 -229 6 -289 16 -311 50 -15 23 -14 26 48 104 l63 80
100 0 c338 0 609 182 664 448 32 154 -7 368 -89 487 l-29 42 51 33 c59 38 133
134 149 193 39 144 -27 245 -163 253 -35 2 -74 0 -88 -5z m-433 -446 c106 -53
153 -184 153 -423 0 -235 -38 -349 -134 -399 -48 -25 -162 -28 -226 -6 -75 26
-105 70 -125 183 -28 162 -14 432 29 535 50 120 185 169 303 110z m109 -1535
c96 -17 160 -48 203 -96 47 -53 65 -113 59 -197 -8 -126 -77 -207 -211 -249
-94 -29 -319 -32 -408 -5 -83 25 -147 73 -178 132 -23 44 -26 62 -26 150 0 88
3 107 27 155 15 30 39 69 55 87 l28 32 196 1 c107 0 222 -5 255 -10z M2669
7375 c-5 -4 -225 -49 -494 -100 -43 -9 -80 -17 -81 -18 0 -1 -4 -30 -7 -64 -7
-69 -13 -64 73 -77 49 -8 96 -39 117 -78 17 -30 18 -76 21 -596 l3 -562 -46
-29 c-24 -15 -65 -34 -89 -41 -48 -13 -56 -29 -56 -111 l0 -39 440 0 440 0 0
28 c0 15 3 43 6 63 l6 36 -63 22 c-35 13 -83 34 -106 47 l-43 25 0 538 0 538
29 40 c54 75 147 132 238 148 116 19 203 -34 244 -152 23 -68 23 -71 27 -584
l3 -515 -38 -36 c-22 -19 -63 -43 -91 -53 l-52 -19 0 -63 0 -63 438 2 437 3 5
61 5 62 -55 17 c-30 9 -81 31 -112 47 l-58 31 0 531 c0 503 -1 535 -20 605
-11 40 -30 92 -42 114 -32 64 -135 160 -202 191 -224 103 -514 55 -699 -115
-44 -40 -69 -56 -72 -47 -2 7 -9 51 -15 97 -5 46 -11 85 -12 86 -6 5 -67 35
-71 35 -2 0 -6 -2 -8 -5z M6535 7364 c-213 -33 -374 -123 -429 -239 -37 -78
-39 -194 -4 -260 17 -32 79 -92 114 -112 67 -37 201 -27 271 20 51 35 103 120
87 142 -55 74 -65 95 -66 143 0 110 69 170 217 188 65 8 127 -9 171 -48 75
-66 94 -141 101 -399 l5 -196 -113 -7 c-359 -22 -486 -45 -636 -119 -186 -90
-275 -266 -246 -485 13 -100 43 -163 108 -227 95 -96 203 -129 404 -123 108 3
149 9 201 27 84 29 192 93 252 148 53 50 50 52 68 -59 5 -37 13 -74 16 -82 5
-14 45 -16 315 -16 l308 0 6 38 c3 20 8 46 10 58 4 18 -3 23 -48 33 -75 17
-157 66 -157 94 0 12 -1 256 -3 542 -3 509 -4 521 -26 585 -72 208 -234 316
-529 355 -137 18 -276 18 -397 -1z m465 -1118 l0 -195 -51 -51 c-58 -59 -136
-111 -192 -130 -57 -18 -170 -9 -204 16 -63 47 -94 122 -95 228 0 81 16 136
55 187 58 77 156 111 367 128 52 5 101 9 108 10 9 1 12 -44 12 -193z M8215
7325 c-143 -29 -276 -56 -296 -59 l-36 -6 -6 -63 c-6 -68 -1 -76 48 -77 37 -1
104 -31 126 -56 37 -44 39 -75 39 -636 l0 -548 -45 -29 c-24 -16 -64 -34 -89
-41 -39 -11 -44 -15 -50 -48 -3 -21 -6 -52 -6 -69 l0 -33 440 0 440 0 0 28 c0
15 3 43 6 63 l6 36 -63 22 c-35 13 -83 35 -106 50 l-43 26 0 536 0 536 28 39
c73 101 159 148 272 148 87 1 125 -16 165 -74 54 -77 55 -92 55 -659 0 -516 0
-525 -20 -546 -21 -22 -119 -75 -139 -75 -6 0 -11 -19 -11 -42 0 -24 -3 -53
-6 -65 l-6 -23 435 0 434 0 7 38 c14 84 12 88 -57 112 -35 12 -81 34 -102 49
l-40 27 -3 528 c-3 602 -9 551 88 639 76 68 130 91 222 91 71 1 79 -1 115 -30
21 -17 47 -46 57 -64 42 -72 46 -119 46 -657 l0 -513 -41 -29 c-22 -17 -60
-38 -85 -47 -36 -14 -44 -21 -44 -43 0 -14 -3 -43 -6 -63 l-7 -38 440 0 441 0
6 31 c3 17 6 46 6 64 0 32 -2 34 -65 54 -35 12 -85 33 -110 48 l-45 28 0 520
c-1 571 -3 595 -60 711 -165 335 -705 353 -957 32 l-46 -58 -29 52 c-80 147
-250 238 -444 238 -153 0 -324 -66 -436 -170 -37 -33 -69 -57 -71 -53 -3 5 -8
33 -11 63 -15 126 -16 129 -48 145 -17 8 -32 14 -32 13 -1 0 -118 -25 -261
-53z M11539 7365 c-297 -43 -469 -184 -469 -384 0 -109 79 -214 183 -242 51
-14 161 -6 202 15 44 22 95 78 110 122 13 37 12 39 -20 77 -73 85 -47 209 53
261 55 28 146 41 203 28 87 -20 134 -67 167 -167 14 -45 35 -329 30 -414 l-3
-56 -100 -8 c-250 -19 -406 -38 -480 -57 -280 -75 -415 -228 -415 -472 0 -224
102 -358 313 -414 67 -18 274 -18 350 0 104 25 230 94 318 173 l37 34 6 -28
c2 -15 10 -61 17 -100 l12 -73 312 0 313 0 6 31 c3 17 6 44 6 60 0 25 -5 29
-37 35 -52 10 -102 31 -140 60 l-33 25 0 518 c0 305 -4 540 -10 572 -15 79
-67 177 -125 235 -145 145 -484 216 -806 169z m455 -942 c4 -9 6 -96 6 -192
l-1 -176 -67 -66 c-87 -85 -163 -123 -257 -127 -98 -5 -149 22 -189 101 -25
49 -29 68 -30 144 0 105 14 152 63 206 61 68 156 99 351 116 52 5 100 9 106
10 7 0 15 -7 18 -16z M10898 4885 c-8 -8 -220 -49 -408 -80 -91 -14 -174 -28
-186 -31 -18 -3 -22 -13 -28 -66 -7 -68 -1 -78 48 -78 52 0 114 -38 139 -84
l22 -41 3 -912 3 -912 -41 -30 c-23 -16 -64 -37 -91 -46 -52 -18 -53 -19 -63
-107 l-6 -48 450 0 450 0 0 34 c0 18 3 47 6 64 6 29 5 30 -62 52 -38 12 -88
34 -111 48 l-43 27 0 1091 0 1090 -35 17 c-40 19 -40 19 -47 12z M9563 4851
c-52 -13 -96 -44 -128 -90 -28 -40 -30 -49 -30 -134 0 -108 22 -161 83 -202
81 -53 255 -60 348 -13 115 57 151 240 71 359 -40 60 -95 82 -211 85 -56 2
-115 0 -133 -5z M2390 4472 l0 -330 58 -3 c31 -3 83 -3 114 -1 l57 4 6 36 c17
112 39 195 69 257 56 118 50 114 206 125 74 5 154 9 178 10 l42 0 0 -938 0
-937 -47 -31 c-50 -33 -112 -57 -176 -69 l-37 -7 0 -53 c0 -29 -3 -60 -6 -69
-6 -14 43 -16 504 -16 l510 0 7 53 c3 28 8 59 11 68 3 12 -14 21 -80 38 -46
12 -105 36 -130 52 l-46 29 0 941 0 942 138 -6 c209 -10 218 -12 247 -61 33
-57 83 -210 94 -290 5 -38 12 -70 15 -73 6 -7 212 -7 223 0 4 3 7 152 5 331
l-3 326 -42 -7 c-56 -10 -1603 -10 -1779 0 l-138 8 0 -329z M8333 4428 c-84
-133 -210 -243 -369 -322 -51 -25 -97 -46 -103 -46 -7 0 -11 -28 -11 -80 l0
-80 125 0 124 0 3 -587 3 -588 24 -59 c42 -104 133 -180 255 -212 61 -17 224
-18 298 -3 127 26 250 82 347 159 l51 41 -32 57 -32 58 -66 -33 c-150 -75
-287 -63 -337 29 -17 30 -18 76 -21 586 l-3 552 226 0 225 0 0 110 0 110 -220
0 -220 0 0 185 0 185 -114 0 -114 0 -39 -62z M4986 4155 c-415 -70 -647 -375
-649 -855 -1 -301 71 -511 232 -671 85 -84 170 -132 306 -171 72 -21 101 -23
280 -23 235 0 304 15 442 92 78 44 253 177 253 192 0 4 -29 36 -65 71 l-66 63
-37 -32 c-135 -114 -324 -172 -502 -156 -239 22 -330 153 -346 498 l-7 137
495 0 495 0 47 70 c53 80 57 116 32 251 -45 234 -144 387 -301 466 -143 73
-407 102 -609 68z m272 -170 c71 -30 108 -82 136 -191 16 -64 40 -309 32 -323
-3 -4 -76 -11 -163 -14 -87 -4 -220 -10 -297 -13 l-138 -7 7 94 c19 253 97
410 230 457 45 16 151 14 193 -3z M9786 4154 c-53 -13 -411 -77 -511 -91 -57
-8 -65 -18 -65 -82 l0 -57 60 -12 c72 -15 125 -57 140 -110 6 -23 10 -244 10
-585 l0 -547 -45 -29 c-24 -16 -64 -34 -89 -41 -42 -11 -44 -14 -50 -57 -3
-25 -6 -56 -6 -69 l0 -24 444 0 445 0 6 48 c3 26 8 55 9 64 3 13 -9 21 -52 34
-62 18 -128 48 -154 72 -17 14 -18 62 -18 743 l0 728 -30 16 c-16 8 -30 15
-32 14 -2 -1 -29 -8 -62 -15z M6026 4124 c-3 -9 -9 -40 -12 -70 -6 -48 -5 -54
12 -54 11 0 42 -11 70 -24 55 -25 37 -3 412 -535 l151 -213 -102 -117 c-56
-64 -173 -201 -260 -303 -155 -182 -173 -198 -247 -216 -31 -7 -35 -12 -42
-53 -4 -24 -10 -54 -13 -66 l-5 -23 318 0 319 0 12 57 c6 31 11 60 11 64 0 4
-26 15 -57 24 -31 9 -76 26 -100 37 l-43 20 47 57 c27 31 58 67 70 81 11 14
64 76 118 138 53 61 99 112 103 112 4 0 17 -15 29 -33 12 -17 76 -108 142
-202 l120 -170 -29 -18 c-17 -10 -48 -21 -70 -24 -36 -5 -40 -8 -46 -42 -3
-20 -10 -51 -14 -68 l-8 -33 423 0 424 0 6 38 c15 98 20 88 -43 111 -70 25
-81 36 -219 231 -60 85 -174 245 -252 354 -78 110 -140 203 -139 207 2 4 106
134 232 288 237 290 253 305 338 319 45 8 42 1 62 110 l6 32 -310 0 -310 0 -7
-27 c-3 -16 -7 -46 -7 -67 -1 -34 2 -40 26 -47 44 -12 118 -52 118 -63 0 -16
-270 -351 -283 -351 -5 0 -69 83 -140 184 -147 207 -145 199 -42 222 l53 12 6
52 c3 30 9 60 12 69 6 14 -35 16 -414 16 -374 0 -421 -2 -426 -16z"/>
</g>
</svg>